HIERARCHY
ROOT Hips
{
	OFFSET 0.00000 0.00000 0.00000
	CHANNELS 6 Xposition Yposition Zposition Zrotation Yrotation Xrotation 
	JOINT LHipJoint
	{
		OFFSET 0 0 0
		CHANNELS 3 Zrotation Yrotation Xrotation
		JOINT LeftUpLeg
		{
			OFFSET 1.58895 -1.83665 0.71753
			CHANNELS 3 Zrotation Yrotation Xrotation
			JOINT LeftLeg
			{
				OFFSET 2.50528 -6.88321 0.00000
				CHANNELS 3 Zrotation Yrotation Xrotation
				JOINT LeftFoot
				{
					OFFSET 2.63244 -7.23257 0.00000
					CHANNELS 3 Zrotation Yrotation Xrotation
					JOINT LeftToeBase
					{
						OFFSET 0.23691 -0.65090 1.72750
						CHANNELS 3 Zrotation Yrotation Xrotation
						End Site
						{
							OFFSET 0.00000 -0.00000 0.92561
						}
					}
				}
			}
		}
	}
	JOINT RHipJoint
	{
		OFFSET 0 0 0
		CHANNELS 3 Zrotation Yrotation Xrotation
		JOINT RightUpLeg
		{
			OFFSET -1.51435 -1.83665 0.71753
			CHANNELS 3 Zrotation Yrotation Xrotation
			JOINT RightLeg
			{
				OFFSET -2.54551 -6.99375 0.00000
				CHANNELS 3 Zrotation Yrotation Xrotation
				JOINT RightFoot
				{
					OFFSET -2.66027 -7.30903 0.00000
					CHANNELS 3 Zrotation Yrotation Xrotation
					JOINT RightToeBase
					{
						OFFSET -0.22981 -0.63138 2.03959
						CHANNELS 3 Zrotation Yrotation Xrotation
						End Site
						{
							OFFSET -0.00000 -0.00000 1.07060
						}
					}
				}
			}
		}
	}
	JOINT LowerBack
	{
		OFFSET 0 0 0
		CHANNELS 3 Zrotation Yrotation Xrotation
		JOINT Spine
		{
			OFFSET -0.02651 1.86275 -0.11152
			CHANNELS 3 Zrotation Yrotation Xrotation
			JOINT Spine1
			{
				OFFSET 0.01019 1.86224 0.04087
				CHANNELS 3 Zrotation Yrotation Xrotation
				JOINT Neck
				{
					OFFSET 0 0 0
					CHANNELS 3 Zrotation Yrotation Xrotation
					JOINT Neck1
					{
						OFFSET -0.01926 1.80512 0.08867
						CHANNELS 3 Zrotation Yrotation Xrotation
						JOINT Head
						{
							OFFSET 0.05516 1.76451 -0.38475
							CHANNELS 3 Zrotation Yrotation Xrotation
							End Site
							{
								OFFSET 0.01592 1.82587 -0.14001
							}
						}
					}
				}
				JOINT LeftShoulder
				{
					OFFSET 0 0 0
					CHANNELS 3 Zrotation Yrotation Xrotation
					JOINT LeftArm
					{
						OFFSET 3.47116 1.51376 0.14491
						CHANNELS 3 Zrotation Yrotation Xrotation
						JOINT LeftForeArm
						{
							OFFSET 4.78095 -0.00000 0.00000
							CHANNELS 3 Zrotation Yrotation Xrotation
							JOINT LeftHand
							{
								OFFSET 3.58615 -0.00000 -0.00000
								CHANNELS 3 Zrotation Yrotation Xrotation
								JOINT LeftFingerBase
								{
									OFFSET 0 0 0
									CHANNELS 3 Zrotation Yrotation Xrotation
									JOINT LeftHandIndex1
									{
										OFFSET 0.65981 -0.00000 0.00000
										CHANNELS 3 Zrotation Yrotation Xrotation
										End Site
										{
											OFFSET 0.53196 -0.00000 0.00000
										}
									}
								}
								JOINT LThumb
								{
									OFFSET 0 0 0
									CHANNELS 3 Zrotation Yrotation Xrotation
									End Site
									{
										OFFSET 0.54008 -0.00000 0.54008
									}
								}
							}
						}
					}
				}
				JOINT RightShoulder
				{
					OFFSET 0 0 0
					CHANNELS 3 Zrotation Yrotation Xrotation
					JOINT RightArm
					{
						OFFSET -3.31725 1.61216 0.35156
						CHANNELS 3 Zrotation Yrotation Xrotation
						JOINT RightForeArm
						{
							OFFSET -4.48913 -0.00000 0.00000
							CHANNELS 3 Zrotation Yrotation Xrotation
							JOINT RightHand
							{
								OFFSET -3.70510 -0.00000 0.00000
								CHANNELS 3 Zrotation Yrotation Xrotation
								JOINT RightFingerBase
								{
									OFFSET 0 0 0
									CHANNELS 3 Zrotation Yrotation Xrotation
									JOINT RightHandIndex1
									{
										OFFSET -0.44914 -0.00000 0.00000
										CHANNELS 3 Zrotation Yrotation Xrotation
										End Site
										{
											OFFSET -0.36211 -0.00000 0.00000
										}
									}
								}
								JOINT RThumb
								{
									OFFSET 0 0 0
									CHANNELS 3 Zrotation Yrotation Xrotation
									End Site
									{
										OFFSET -0.36763 -0.00000 0.36763
									}
								}
							}
						}
					}
				}
			}
		}
	}
}
MOTION
Frames: 10
Frame Time: .0083333
-0.1014 17.3161 6.0511 -1.9542 -18.7379 0.6994 0.0000 0.0000 0.0000 -13.2284 16.3960 30.1367 5.2300 -13.6383 -41.8073 -0.2535 16.8781 9.1756 1.8150 -8.4695 -24.1495 0.0000 0.0000 0.0000 10.6747 -25.9269 18.0487 -4.9260 13.3000 -40.5020 -0.7680 -17.0228 18.4190 -0.4193 -4.1562 11.5164 -3.7906 0.2597 13.1967 0.3060 -0.1657 4.3299 2.4856 -0.1075 -2.8296 -13.3357 -7.4640 -14.8910 2.6692 -8.2203 36.4048 1.9232 -4.9968 16.2876 0.0000 -0.0000 0.0000 -91.3696 -16.0608 80.5784 16.8220 -26.6225 -4.0072 -0.0000 -0.0000 28.1936 -16.9389 -25.3815 7.4379 -7.1250 0.0000 -0.0000 -27.2392 5.6979 27.8435 0.0000 -0.0000 0.0000 63.0034 22.0704 36.1691 -19.4519 29.9763 -5.2547 0.0000 0.0000 7.5088 -0.0845 -37.3046 0.0512 7.1250 -0.0000 -0.0000 41.1831 -62.4352 -19.1391
-0.0347 17.3125 6.0525 -1.7889 -19.6664 0.3998 0.0000 0.0000 0.0000 -13.7392 16.5330 30.3237 5.1469 -13.5474 -41.4536 -0.3450 17.1417 8.3514 1.7810 -8.3941 -23.9178 0.0000 0.0000 0.0000 10.2948 -25.5642 18.0615 -4.8998 13.2701 -40.3881 -0.7752 -17.1739 18.5364 -0.4827 -4.4552 12.3609 -4.2693 0.1177 13.2645 0.1772 -0.4238 4.3805 2.6610 -0.2389 -2.7906 -13.4953 -7.5920 -14.7535 2.8528 -8.4815 36.3996 1.9796 -5.1115 16.3031 -0.0000 -0.0000 0.0000 -92.0604 -16.4498 82.3818 17.3072 -27.2610 -4.2271 -0.0000 -0.0000 26.9490 -16.9183 -25.0531 7.3395 -7.1250 0.0000 -0.0000 -27.2690 6.0016 27.7045 -0.0000 -0.0000 0.0000 60.5155 22.4246 34.0382 -19.2581 29.7381 -5.1583 0.0000 0.0000 7.3190 -0.2337 -36.5622 0.1392 7.1250 -0.0000 -0.0000 40.1217 -61.9106 -18.0613
0.0293 17.3093 6.0537 -1.5522 -20.5652 0.0780 0.0000 0.0000 0.0000 -14.3244 16.6269 30.4500 5.0453 -13.4346 -41.0180 -0.4364 17.4249 7.5222 1.7293 -8.2778 -23.5611 0.0000 0.0000 0.0000 9.8588 -25.1859 18.0645 -4.8626 13.2273 -40.2255 -0.8105 -17.1431 18.7814 -0.4927 -4.5005 12.4893 -4.7274 -0.0037 13.3711 -0.0253 -0.6560 4.5132 2.7433 -0.3608 -2.6865 -13.6144 -7.7882 -14.8461 3.1340 -8.8541 36.3399 2.0419 -5.2466 16.3625 -0.0000 0.0000 0.0000 -92.5179 -17.0834 84.3545 17.8654 -27.9845 -4.4859 -0.0000 -0.0000 25.4464 -16.8655 -24.7089 7.2224 -7.1250 0.0000 -0.0000 -27.2844 6.3215 27.5355 -0.0000 0.0000 0.0000 58.1799 22.6233 31.5979 -19.3650 29.8697 -5.2114 0.0000 0.0000 7.3085 -0.1936 -36.1231 0.1141 7.1250 -0.0000 -0.0000 39.6356 -61.5639 -17.4773
0.0916 17.3083 6.0548 -1.4165 -21.4698 -0.2643 0.0000 0.0000 0.0000 -14.7635 16.7797 30.6161 4.9447 -13.3213 -40.5834 -0.5287 17.7174 6.6655 1.6389 -8.0696 -22.9256 0.0000 0.0000 0.0000 9.5287 -24.7737 18.1190 -4.8280 13.1875 -40.0743 -0.8356 -17.1577 18.9698 -0.5262 -4.6486 12.9091 -5.1695 -0.1997 13.5292 -0.1304 -0.9897 4.3903 2.9373 -0.5207 -2.8661 -14.0643 -7.7401 -13.9183 3.6338 -8.9982 36.0043 2.3359 -5.3214 16.0502 -0.0000 0.0000 0.0000 -92.9990 -17.0515 85.7926 18.5562 -28.8635 -4.8147 -0.0000 -0.0000 24.3892 -16.8289 -24.3726 7.1148 -7.1250 0.0000 -0.0000 -27.3078 6.6333 27.3804 -0.0000 0.0000 0.0000 55.8197 22.6263 29.8985 -19.4646 29.9918 -5.2611 0.0000 0.0000 7.1212 -0.0384 -36.3511 0.0227 7.1250 -0.0000 -0.0000 40.0559 -61.6998 -17.8263
0.1527 17.3075 6.0552 -1.2843 -22.3019 -0.5983 0.0000 0.0000 0.0000 -15.1681 16.9685 30.7568 4.8521 -13.2153 -40.1797 -0.6121 17.9729 5.8547 1.5135 -7.7692 -22.0153 0.0000 0.0000 0.0000 9.2205 -24.3518 18.1696 -4.7958 13.1501 -39.9331 -0.8271 -17.3069 18.9699 -0.5595 -4.7913 13.3142 -5.5055 -0.3811 13.7305 -0.3092 -1.2953 4.3970 2.9902 -0.6713 -2.9364 -14.1981 -7.7342 -13.4852 4.0202 -9.1758 35.7002 2.5034 -5.3724 15.8480 -0.0000 0.0000 0.0000 -93.1892 -17.2869 87.3081 19.4942 -30.0282 -5.2759 -0.0000 -0.0000 23.3042 -16.9244 -24.1243 7.0894 -7.1250 0.0000 -0.0000 -27.3889 6.8563 27.3525 -0.0000 0.0000 0.0000 53.4817 23.0160 28.0453 -19.4737 30.0030 -5.2656 0.0000 0.0000 6.7501 0.4631 -36.6975 -0.2767 7.1250 -0.0000 -0.0000 40.9557 -61.8367 -18.4363
0.2111 17.3050 6.0557 -1.0647 -23.1178 -0.9586 0.0000 0.0000 0.0000 -15.6347 17.2531 30.8594 4.7695 -13.1195 -39.8174 -0.6762 18.1560 5.1916 1.4242 -7.5466 -21.3453 0.0000 0.0000 0.0000 8.8422 -23.9630 18.2041 -4.7655 13.1148 -39.7997 -0.8119 -17.4706 18.9290 -0.5479 -4.7420 13.1743 -5.8211 -0.4975 13.9197 -0.5746 -1.5136 4.5322 2.9257 -0.7853 -2.8742 -13.9824 -7.8624 -13.6316 4.1303 -9.4654 35.6045 2.4517 -5.4503 15.8588 -0.0000 -0.0000 0.0000 -93.0735 -17.8325 89.1632 20.6409 -31.4068 -5.8617 -0.0000 -0.0000 22.1969 -16.4195 -24.0424 6.8461 -7.1250 0.0000 -0.0000 -27.1370 6.9599 26.9626 -0.0000 -0.0000 0.0000 51.1238 23.5038 26.0324 -19.5251 30.0659 -5.2913 0.0000 0.0000 6.0423 0.9654 -36.9199 -0.5800 7.1250 -0.0000 -0.0000 41.7086 -61.8766 -18.8816
0.2656 17.3032 6.0571 -0.8850 -23.9339 -1.3335 0.0000 0.0000 0.0000 -16.0187 17.6581 30.9516 4.6944 -13.0312 -39.4854 -0.7190 18.2622 4.7120 1.4125 -7.5167 -21.2556 0.0000 0.0000 0.0000 8.5261 -23.6685 18.2440 -4.7407 13.0857 -39.6902 -0.8038 -17.6427 18.9448 -0.5644 -4.8116 13.3720 -6.1976 -0.5832 14.1916 -0.7486 -1.7064 4.5743 2.9912 -0.8809 -2.9514 -13.8632 -8.0254 -13.7458 4.1385 -9.7650 35.7440 2.3704 -5.5652 15.9837 -0.0000 0.0000 0.0000 -93.0347 -18.2646 90.3648 21.8180 -32.7707 -6.4871 -0.0000 -0.0000 22.8959 -16.0657 -24.9843 6.9352 -7.1250 0.0000 -0.0000 -26.8367 6.1103 27.0723 -0.0000 0.0000 0.0000 48.8969 23.8511 23.7974 -19.4720 30.0009 -5.2648 0.0000 0.0000 5.8398 1.1845 -36.6809 -0.7077 7.1250 -0.0000 -0.0000 41.6248 -61.6416 -18.6045
0.3162 17.3037 6.0580 -0.7160 -24.7541 -1.7267 0.0000 0.0000 0.0000 -16.3480 18.1778 31.0276 4.6245 -12.9480 -39.1740 -0.7530 18.3562 4.3364 1.4198 -7.5355 -21.3120 0.0000 0.0000 0.0000 8.2416 -23.4618 18.2831 -4.7228 13.0646 -39.6109 -0.7794 -17.9091 18.8855 -0.6951 -5.3296 14.8510 -6.5649 -0.6431 14.3882 -0.9390 -1.8616 4.6007 3.0270 -0.9578 -3.0075 -13.8785 -8.1583 -13.4785 4.3909 -10.1233 35.7011 2.4188 -5.6963 15.9611 0.0000 -0.0000 0.0000 -92.7366 -18.5971 92.6846 23.1774 -34.2823 -7.2380 -0.0000 -0.0000 19.7414 -14.7232 -23.9743 6.0946 -7.1250 0.0000 -0.0000 -26.2520 7.1012 25.7530 0.0000 -0.0000 0.0000 46.9513 24.1796 21.2491 -19.2253 29.6977 -5.1420 0.0000 0.0000 6.3390 1.2471 -36.0517 -0.7340 7.1250 -0.0000 -0.0000 40.9324 -61.1506 -17.7560
0.3652 17.3049 6.0582 -0.5113 -25.5917 -2.1739 0.0000 0.0000 0.0000 -16.6725 18.8164 31.1016 4.5574 -12.8673 -38.8739 -0.7871 18.4425 3.9363 1.3920 -7.4644 -21.0987 0.0000 0.0000 0.0000 7.9290 -23.3160 18.3430 -4.7094 13.0489 -39.5516 -0.7388 -18.2546 18.7495 -0.8182 -5.7718 16.1236 -6.9854 -0.6567 14.6304 -1.1345 -1.9701 4.6257 3.0813 -1.0107 -3.0914 -13.9560 -8.2847 -13.0916 4.7719 -10.5121 35.5485 2.5315 -5.8333 15.8755 0.0000 -0.0000 0.0000 -92.5189 -19.0291 94.4411 24.5851 -35.7769 -8.0461 -0.0000 -0.0000 17.7108 -14.8836 -23.0336 5.9368 -7.1250 0.0000 -0.0000 -26.4524 7.9622 25.5020 0.0000 -0.0000 0.0000 44.8989 24.3679 19.0974 -19.0632 29.4971 -5.0619 0.0000 0.0000 6.4297 1.3739 -35.6391 -0.8007 7.1250 -0.0000 -0.0000 40.5742 -60.8051 -17.2342
0.4139 17.3047 6.0585 -0.3502 -26.3788 -2.6169 0.0000 0.0000 0.0000 -16.9354 19.4576 31.1769 4.4906 -12.7861 -38.5729 -0.8186 18.5001 3.5214 1.3691 -7.4054 -20.9220 0.0000 0.0000 0.0000 7.6932 -23.2865 18.3945 -4.7037 13.0422 -39.5266 -0.7263 -18.6846 18.8594 -0.8550 -5.8971 16.4860 -7.3942 -0.6857 14.9227 -1.2740 -2.1029 4.6245 3.1942 -1.0730 -3.2246 -14.1718 -8.4080 -12.8305 5.1800 -10.8610 35.5612 2.6818 -5.9702 15.9152 0.0000 0.0000 0.0000 -92.4932 -19.5530 95.7934 25.9270 -37.1365 -8.8435 -0.0000 -0.0000 16.1957 -16.1011 -22.4791 6.2980 -7.1250 0.0000 -0.0000 -27.1729 8.4153 26.1267 0.0000 0.0000 0.0000 42.7485 24.4511 17.3563 -18.9750 29.3876 -5.0186 0.0000 0.0000 6.5102 1.7993 -35.5013 -1.0451 7.1250 -0.0000 -0.0000 40.8210 -60.5964 -17.1553
